<svg width="40" height="40" viewBox="0 0 40 40" fill="none" xmlns="http://www.w3.org/2000/svg">
<rect width="40" height="40" rx="10" fill="#2B574B"/>
<path d="M16.3473 16.7153C16.281 16.095 16.0017 15.612 15.5093 15.2664C15.0216 14.9208 14.3871 14.7479 13.6059 14.7479C13.0566 14.7479 12.5855 14.8308 12.1925 14.9965C11.7995 15.1622 11.4988 15.3871 11.2905 15.6712C11.0822 15.9553 10.9756 16.2797 10.9709 16.6442C10.9709 16.9473 11.0396 17.2101 11.1769 17.4326C11.3189 17.6551 11.5107 17.8445 11.7522 18.0008C11.9936 18.1523 12.2612 18.2801 12.5547 18.3843C12.8483 18.4885 13.1442 18.5761 13.4425 18.6471L14.8061 18.988C15.3554 19.1158 15.8833 19.2887 16.3899 19.5065C16.9013 19.7243 17.3582 19.9989 17.7607 20.3303C18.1679 20.6618 18.4898 21.0619 18.7266 21.5306C18.9633 21.9994 19.0817 22.5486 19.0817 23.1783C19.0817 24.0306 18.8639 24.7811 18.4283 25.4298C17.9927 26.0737 17.363 26.578 16.5391 26.9425C15.72 27.3024 14.728 27.4823 13.5632 27.4823C12.4316 27.4823 11.4491 27.3071 10.6158 26.9567C9.7872 26.6064 9.13852 26.095 8.66977 25.4227C8.20576 24.7503 7.95481 23.9312 7.91693 22.9653H10.5093C10.5471 23.4719 10.7034 23.8933 10.978 24.2295C11.2526 24.5656 11.6101 24.8166 12.0505 24.9823C12.4955 25.148 12.9927 25.2309 13.5419 25.2309C14.1148 25.2309 14.6167 25.1457 15.0476 24.9752C15.4832 24.8 15.8241 24.5585 16.0703 24.2508C16.3166 23.9383 16.442 23.5737 16.4468 23.157C16.442 22.7782 16.3308 22.4657 16.113 22.2195C15.8952 21.9686 15.5898 21.7602 15.1968 21.5945C14.8085 21.4241 14.354 21.2726 13.8331 21.14L12.1783 20.7138C10.9804 20.4061 10.0334 19.9397 9.33739 19.3147C8.6461 18.685 8.30045 17.8493 8.30045 16.8076C8.30045 15.9506 8.53246 15.2001 8.99648 14.5562C9.46523 13.9122 10.1021 13.4127 10.907 13.0576C11.7119 12.6977 12.6234 12.5178 13.6414 12.5178C14.6736 12.5178 15.5779 12.6977 16.3544 13.0576C17.1357 13.4127 17.7488 13.9075 18.1939 14.542C18.639 15.1717 18.8686 15.8961 18.8828 16.7153H16.3473Z" fill="white"/>
<path d="M21.2308 27.2621V12.7167H26.799C27.8501 12.7167 28.7237 12.8824 29.4197 13.2138C30.1205 13.5406 30.6437 13.988 30.9893 14.5562C31.3397 15.1244 31.5149 15.7683 31.5149 16.488C31.5149 17.0799 31.4012 17.5865 31.174 18.0079C30.9467 18.4245 30.6413 18.7631 30.2578 19.0235C29.8742 19.2839 29.4457 19.4709 28.9723 19.5846V19.7266C29.4884 19.755 29.9832 19.9137 30.4566 20.2025C30.9349 20.4866 31.3255 20.889 31.6285 21.4099C31.9315 21.9307 32.0831 22.5604 32.0831 23.2991C32.0831 24.0519 31.9008 24.729 31.5362 25.3303C31.1716 25.9269 30.6224 26.398 29.8885 26.7437C29.1546 27.0893 28.2313 27.2621 27.1186 27.2621H21.2308ZM23.8657 25.0604H26.6995C27.656 25.0604 28.3449 24.8781 28.7663 24.5136C29.1924 24.1442 29.4055 23.6708 29.4055 23.0931C29.4055 22.6622 29.299 22.274 29.0859 21.9283C28.8728 21.578 28.5698 21.3033 28.1768 21.1045C27.7838 20.9009 27.3151 20.7991 26.7706 20.7991H23.8657V25.0604ZM23.8657 18.9028H26.4723C26.9268 18.9028 27.3364 18.8199 27.701 18.6542C28.0655 18.4837 28.352 18.2446 28.5603 17.9369C28.7734 17.6244 28.8799 17.255 28.8799 16.8289C28.8799 16.2655 28.6811 15.8014 28.2833 15.4369C27.8903 15.0723 27.3056 14.89 26.5291 14.89H23.8657V18.9028Z" fill="white"/>
</svg>