<svg width="32" height="32" viewBox="0 0 32 32" fill="none" xmlns="http://www.w3.org/2000/svg">
<g id="Logo-04">
<g id="Group">
<g id="Group_2">
<path id="Vector" d="M28.3536 13.6159L18.6478 8.013L8.94302 2.40939C7.10753 1.34971 4.81372 2.67413 4.81372 4.7935V27.2065C4.81372 29.3255 7.10717 30.651 8.94302 29.5906L18.6478 23.9877L28.3536 18.3837C30.1883 17.3244 30.1883 14.6752 28.3536 13.6159ZM13.5552 19.3622H9.20704C8.92641 19.3622 8.69887 19.1335 8.69887 18.8529C8.69887 18.5723 8.92641 18.3437 9.20704 18.3437H13.5552C13.8369 18.3437 14.0645 18.5723 14.0645 18.8529C14.0645 19.1335 13.8369 19.3622 13.5552 19.3622ZM19.2354 16.5089H9.20704C8.92641 16.5089 8.69778 16.2803 8.69778 15.9996C8.69778 15.719 8.92641 15.4915 9.20704 15.4915H19.2358C19.5164 15.4915 19.745 15.719 19.745 15.9996C19.7446 16.2806 19.5164 16.5089 19.2354 16.5089ZM19.2354 13.656H9.20704C8.92641 13.656 8.69778 13.4284 8.69778 13.1467C8.69778 12.8661 8.92641 12.6386 9.20704 12.6386H19.2358C19.5164 12.6386 19.745 12.8661 19.745 13.1467C19.7446 13.4284 19.5164 13.656 19.2354 13.656Z" fill="#0C111D"/>
</g>
</g>
</g>
</svg>
